<svg width="44" height="44" viewBox="0 0 32 32" fill="none" xmlns="http://www.w3.org/2000/svg">
<rect width="32" height="32" rx="16" fill="#FFBE00"/>
<path d="M15.331 8.23706H16.5691H19.3548C20.0125 8.23706 20.6065 8.48915 21.1095 8.97394C21.5931 9.47812 21.9012 10.0825 21.9012 10.7418V12.6034C21.9012 13.2821 21.5931 13.8638 21.1095 14.3486C20.6065 14.8528 20.0125 15.0855 19.3548 15.0855H16.8786V18.4984C16.8786 18.7117 16.7625 18.8087 16.5691 18.8087H15.331C15.1182 18.8087 15.0215 18.7117 15.0215 18.4984L15.0215 8.54733C15.0215 8.35341 15.1182 8.23706 15.331 8.23706ZM16.8786 10.1212V13.2239H19.3548C19.5289 13.2239 19.6836 13.1657 19.7997 13.0494C19.9158 12.933 20.0392 12.7973 20.0392 12.6034V10.7418C20.0392 10.5673 19.9158 10.4121 19.7997 10.2958C19.6836 10.1794 19.5289 10.1212 19.3548 10.1212H16.8786Z" fill="#3F3500"/>
<path d="M20.4446 18.7927C20.4198 18.7927 20.3975 18.784 20.3776 18.7667C20.3603 18.7493 20.3516 18.727 20.3516 18.6997V17.9L19.4887 16.3081C19.4862 16.3007 19.4837 16.2945 19.4813 16.2895C19.4788 16.2821 19.4775 16.2746 19.4775 16.2672C19.4775 16.2474 19.485 16.23 19.4999 16.2151C19.5172 16.1978 19.5371 16.1891 19.5594 16.1891H20.0243C20.0615 16.1891 20.09 16.199 20.1098 16.2188C20.1322 16.2362 20.1458 16.2523 20.1508 16.2672L20.6864 17.2268L21.222 16.2672C21.2294 16.2523 21.243 16.2362 21.2629 16.2188C21.2852 16.199 21.3149 16.1891 21.3521 16.1891H21.8171C21.8394 16.1891 21.858 16.1978 21.8729 16.2151C21.8877 16.23 21.8952 16.2474 21.8952 16.2672C21.8952 16.2746 21.8939 16.2821 21.8915 16.2895C21.8915 16.2945 21.8902 16.3007 21.8877 16.3081L21.0211 17.9V18.6997C21.0211 18.727 21.0124 18.7493 20.9951 18.7667C20.9777 18.784 20.9554 18.7927 20.9281 18.7927H20.4446Z" fill="#3F3500"/>
<path d="M17.3467 18.8C17.3268 18.8 17.3082 18.7926 17.2909 18.7777C17.276 18.7604 17.2686 18.7418 17.2686 18.7219C17.2686 18.7095 17.2698 18.6984 17.2723 18.6884L18.1463 16.3006C18.1538 16.2733 18.1687 16.2497 18.191 16.2299C18.2158 16.2076 18.2492 16.1964 18.2914 16.1964H18.8419C18.884 16.1964 18.9163 16.2076 18.9386 16.2299C18.9634 16.2497 18.9795 16.2733 18.9869 16.3006L19.8573 18.6884C19.8622 18.6984 19.8647 18.7095 19.8647 18.7219C19.8647 18.7418 19.8561 18.7604 19.8387 18.7777C19.8238 18.7926 19.8052 18.8 19.7829 18.8H19.3254C19.2882 18.8 19.2597 18.7913 19.2399 18.774C19.2225 18.7542 19.2113 18.7368 19.2064 18.7219L19.0613 18.3425H18.0682L17.9269 18.7219C17.9219 18.7368 17.9108 18.7542 17.8934 18.774C17.8761 18.7913 17.8463 18.8 17.8042 18.8H17.3467ZM18.2207 17.8069H18.9126L18.5629 16.825L18.2207 17.8069Z" fill="#3F3500"/>
<path fill-rule="evenodd" clip-rule="evenodd" d="M10.1299 17.4522V8.42653C10.1299 8.32196 10.2147 8.23718 10.3192 8.23718H10.6979C10.8025 8.23718 10.8873 8.32196 10.8873 8.42653V17.4522C10.8873 20.5291 13.2857 23.038 16.8833 23.038H21.7117C21.8163 23.038 21.9011 23.1227 21.9011 23.2273V23.606C21.9011 23.7106 21.8163 23.7954 21.7117 23.7954H16.8833C12.7019 23.7954 10.1299 20.8447 10.1299 17.4522Z" fill="#3F3500"/>
<path fill-rule="evenodd" clip-rule="evenodd" d="M11.4561 17.4522V8.52121C11.4561 8.36434 11.5832 8.23718 11.7401 8.23718H13.034C13.1908 8.23718 13.318 8.36434 13.318 8.52121V17.4522C13.318 19.4304 14.9216 20.608 16.8998 20.608H21.3969C21.6757 20.608 21.9018 20.8341 21.9018 21.1129V21.965C21.9018 22.2439 21.6757 22.4699 21.3969 22.4699H16.8998C13.6493 22.4699 11.4561 20.2451 11.4561 17.4522Z" fill="#3F3500"/>
</svg>
