<svg width="448" height="120" viewBox="0 0 448 120" fill="none" xmlns="http://www.w3.org/2000/svg">
<rect y="0.465088" width="119.07" height="119.07" rx="59.5349" fill="black"/>
<path d="M57.0468 31.1149H61.6536H72.019C74.4663 31.1149 76.6767 32.0529 78.5482 33.8568C80.3477 35.7328 81.494 37.9815 81.494 40.4348V47.3616C81.494 49.887 80.3478 52.0517 78.5483 53.8556C76.6767 55.7316 74.4664 56.5974 72.019 56.5974H62.8054V69.2967C62.8054 70.0904 62.3735 70.4512 61.6537 70.4512H57.0469C56.2551 70.4512 55.8952 70.0904 55.8952 69.2967L55.8951 32.2693C55.8951 31.5478 56.255 31.1149 57.0468 31.1149ZM62.8054 38.1258V49.6706H72.019C72.6668 49.6706 73.2427 49.4541 73.6746 49.0212C74.1065 48.5883 74.5658 48.0832 74.5658 47.3616V40.4348C74.5658 39.7854 74.1065 39.2081 73.6746 38.7752C73.2427 38.3423 72.6668 38.1258 72.019 38.1258H62.8054Z" fill="white"/>
<path d="M76.0753 70.3923C75.983 70.3923 75.9 70.36 75.8262 70.2955C75.7616 70.2309 75.7293 70.1478 75.7293 70.0463V67.0708L72.5184 61.1473C72.5092 61.1197 72.5 61.0966 72.4908 61.0781C72.4815 61.0505 72.4769 61.0228 72.4769 60.9951C72.4769 60.9213 72.5046 60.8567 72.56 60.8013C72.6246 60.7368 72.6984 60.7045 72.7814 60.7045H74.5114C74.6498 60.7045 74.7559 60.7414 74.8297 60.8152C74.9127 60.8798 74.9635 60.9397 74.9819 60.9951L76.9749 64.5658L78.9678 60.9951C78.9955 60.9397 79.0462 60.8798 79.12 60.8152C79.2031 60.7414 79.3138 60.7045 79.4522 60.7045H81.1822C81.2652 60.7045 81.3344 60.7368 81.3898 60.8013C81.4451 60.8567 81.4728 60.9213 81.4728 60.9951C81.4728 61.0228 81.4682 61.0505 81.459 61.0781C81.459 61.0966 81.4544 61.1197 81.4451 61.1473L78.2204 67.0708V70.0463C78.2204 70.1478 78.1882 70.2309 78.1236 70.2955C78.059 70.36 77.9759 70.3923 77.8745 70.3923H76.0753Z" fill="white"/>
<path d="M64.5476 70.4195C64.4738 70.4195 64.4046 70.3918 64.34 70.3365C64.2846 70.2719 64.257 70.2027 64.257 70.1289C64.257 70.0827 64.2616 70.0412 64.2708 70.0043L67.5232 61.1191C67.5508 61.0177 67.6062 60.93 67.6892 60.8562C67.7815 60.7731 67.9061 60.7316 68.0629 60.7316H70.1112C70.268 60.7316 70.388 60.7731 70.471 60.8562C70.5633 60.93 70.6233 61.0177 70.6509 61.1191L73.8895 70.0043C73.9079 70.0412 73.9171 70.0827 73.9171 70.1289C73.9171 70.2027 73.8848 70.2719 73.8203 70.3365C73.7649 70.3918 73.6957 70.4195 73.6127 70.4195H71.9104C71.772 70.4195 71.6659 70.3872 71.5921 70.3226C71.5275 70.2488 71.4859 70.1842 71.4675 70.1289L70.9277 68.7172H67.2325L66.7066 70.1289C66.6882 70.1842 66.6466 70.2488 66.582 70.3226C66.5175 70.3872 66.4067 70.4195 66.2499 70.4195H64.5476ZM67.7999 66.7243H70.3742L69.0732 63.0706L67.7999 66.7243Z" fill="white"/>
<path fill-rule="evenodd" clip-rule="evenodd" d="M37.6941 65.403V31.8192C37.6941 31.4301 38.0095 31.1147 38.3986 31.1147H39.8078C40.1969 31.1147 40.5123 31.4301 40.5123 31.8192V65.403C40.5123 76.852 49.4367 86.1874 62.8232 86.1874H80.7894C81.1785 86.1874 81.4939 86.5028 81.4939 86.8919V88.3011C81.4939 88.6902 81.1785 89.0056 80.7894 89.0056H62.8232C47.2643 89.0056 37.6941 78.0263 37.6941 65.403Z" fill="white"/>
<path fill-rule="evenodd" clip-rule="evenodd" d="M42.6259 65.403V32.1715C42.6259 31.5878 43.099 31.1147 43.6827 31.1147H48.4971C49.0808 31.1147 49.554 31.5878 49.554 32.1715V65.403C49.554 72.7638 55.521 77.1456 62.8818 77.1456H79.615C80.6526 77.1456 81.4938 77.9868 81.4938 79.0244V82.1949C81.4938 83.2325 80.6526 84.0737 79.615 84.0737H62.8818C50.7869 84.0737 42.6259 75.7952 42.6259 65.403Z" fill="white"/>
<path d="M153.197 81C152.786 81 152.438 80.8565 152.151 80.5694C151.864 80.2823 151.72 79.9337 151.72 79.5235V39.4129C151.72 39.0028 151.864 38.6542 152.151 38.3671C152.438 38.08 152.786 37.9364 153.197 37.9364H158.918C159.328 37.9364 159.677 38.08 159.964 38.3671C160.251 38.6542 160.394 39.0028 160.394 39.4129V73.6792H179.896C180.347 73.6792 180.716 73.8227 181.003 74.1098C181.29 74.3969 181.434 74.766 181.434 75.2172V79.5235C181.434 79.9337 181.29 80.2823 181.003 80.5694C180.716 80.8565 180.347 81 179.896 81H153.197ZM197.82 81.6152C195.318 81.6152 193.145 81.0615 191.299 79.9542C189.495 78.8058 188.1 77.2063 187.116 75.1557C186.132 73.064 185.639 70.6032 185.639 67.7733V50.4864C185.639 50.0763 185.783 49.7276 186.07 49.4406C186.357 49.1535 186.706 49.0099 187.116 49.0099H192.53C192.981 49.0099 193.329 49.1535 193.575 49.4406C193.863 49.7276 194.006 50.0763 194.006 50.4864V67.4042C194.006 72.4898 196.241 75.0326 200.712 75.0326C202.844 75.0326 204.526 74.3559 205.756 73.0025C207.028 71.6491 207.663 69.783 207.663 67.4042V50.4864C207.663 50.0763 207.807 49.7276 208.094 49.4406C208.381 49.1535 208.73 49.0099 209.14 49.0099H214.554C214.964 49.0099 215.312 49.1535 215.599 49.4406C215.886 49.7276 216.03 50.0763 216.03 50.4864V79.5235C216.03 79.9337 215.886 80.2823 215.599 80.5694C215.312 80.8565 214.964 81 214.554 81H209.57C209.119 81 208.75 80.8565 208.463 80.5694C208.217 80.2823 208.094 79.9337 208.094 79.5235V77.0012C206.987 78.4367 205.613 79.5645 203.972 80.3848C202.332 81.2051 200.281 81.6152 197.82 81.6152ZM237.998 81.6152C235.045 81.6152 232.441 81.0615 230.185 79.9542C227.971 78.8468 226.227 77.2473 224.956 75.1557C223.726 73.023 223.049 70.4597 222.926 67.4657C222.885 66.8505 222.864 66.0508 222.864 65.0665C222.864 64.0412 222.885 63.2004 222.926 62.5442C223.049 59.5502 223.726 57.0074 224.956 54.9158C226.227 52.7831 227.971 51.1631 230.185 50.0558C232.441 48.9484 235.045 48.3947 237.998 48.3947C240.623 48.3947 242.858 48.7638 244.704 49.5021C246.549 50.2403 248.067 51.1631 249.256 52.2705C250.446 53.3778 251.327 54.5467 251.902 55.7771C252.517 56.9664 252.845 58.0533 252.886 59.0376C252.927 59.4887 252.783 59.8578 252.455 60.1449C252.168 60.391 251.82 60.514 251.409 60.514H245.996C245.586 60.514 245.257 60.4115 245.011 60.2064C244.806 60.0014 244.601 59.6938 244.396 59.2837C243.781 57.6431 242.961 56.4948 241.935 55.8386C240.951 55.1414 239.68 54.7927 238.121 54.7927C236.071 54.7927 234.43 55.449 233.2 56.7614C232.01 58.0328 231.375 60.0629 231.293 62.8518C231.211 64.4103 231.211 65.8457 231.293 67.1581C231.375 69.988 232.01 72.0387 233.2 73.3101C234.43 74.5815 236.071 75.2172 238.121 75.2172C239.721 75.2172 241.013 74.8891 241.997 74.2329C242.981 73.5356 243.781 72.3668 244.396 70.7263C244.601 70.3161 244.806 70.0085 245.011 69.8035C245.257 69.5984 245.586 69.4959 245.996 69.4959H251.409C251.82 69.4959 252.168 69.6394 252.455 69.9265C252.783 70.1726 252.927 70.5212 252.886 70.9723C252.845 71.7106 252.64 72.5513 252.271 73.4946C251.943 74.3969 251.389 75.3402 250.61 76.3245C249.871 77.2678 248.928 78.1496 247.78 78.9699C246.631 79.7491 245.237 80.3848 243.596 80.877C241.997 81.3691 240.131 81.6152 237.998 81.6152ZM260.84 81C260.43 81 260.081 80.8565 259.794 80.5694C259.507 80.2823 259.363 79.9337 259.363 79.5235V38.7977C259.363 38.3876 259.507 38.039 259.794 37.7519C260.081 37.4648 260.43 37.3212 260.84 37.3212H265.823C266.274 37.3212 266.622 37.4648 266.869 37.7519C267.156 38.039 267.299 38.3876 267.299 38.7977V59.8373L277.634 50.0558C278.004 49.7276 278.332 49.4816 278.619 49.3175C278.906 49.1125 279.336 49.0099 279.911 49.0099H285.632C286.042 49.0099 286.37 49.133 286.616 49.379C286.862 49.6251 286.985 49.9532 286.985 50.3633C286.985 50.5274 286.944 50.712 286.862 50.917C286.78 51.1221 286.616 51.3066 286.37 51.4707L273.697 63.3439L287.908 78.6007C288.318 79.0109 288.523 79.3595 288.523 79.6466C288.523 80.0567 288.38 80.3848 288.093 80.6309C287.847 80.877 287.539 81 287.17 81H281.326C280.71 81 280.259 80.918 279.972 80.7539C279.726 80.5489 279.419 80.2823 279.049 79.9542L267.299 67.5888V79.5235C267.299 79.9337 267.156 80.2823 266.869 80.5694C266.622 80.8565 266.274 81 265.823 81H260.84ZM298.908 92.6887C298.58 92.6887 298.293 92.5656 298.047 92.3196C297.801 92.0735 297.678 91.7864 297.678 91.4583C297.678 91.2942 297.678 91.1302 297.678 90.9661C297.719 90.8431 297.801 90.679 297.924 90.474L302.722 79.0929L290.911 51.2246C290.747 50.8145 290.665 50.5274 290.665 50.3633C290.706 49.9942 290.849 49.6866 291.095 49.4406C291.341 49.1535 291.649 49.0099 292.018 49.0099H297.001C297.493 49.0099 297.862 49.133 298.108 49.379C298.354 49.6251 298.539 49.8917 298.662 50.1788L306.844 70.2956L315.272 50.1788C315.395 49.8507 315.58 49.5841 315.826 49.379C316.072 49.133 316.441 49.0099 316.933 49.0099H321.855C322.183 49.0099 322.47 49.133 322.716 49.379C323.003 49.6251 323.147 49.9122 323.147 50.2403C323.147 50.4864 323.065 50.8145 322.901 51.2246L305.491 91.5198C305.327 91.8479 305.122 92.1145 304.876 92.3196C304.629 92.5656 304.26 92.6887 303.768 92.6887H298.908ZM343.102 81C342.692 81 342.343 80.8565 342.056 80.5694C341.769 80.2823 341.625 79.9337 341.625 79.5235V39.4744C341.625 39.0233 341.769 38.6542 342.056 38.3671C342.343 38.08 342.692 37.9364 343.102 37.9364H359.589C362.788 37.9364 365.577 38.4491 367.955 39.4744C370.334 40.4587 372.18 41.9762 373.492 44.0269C374.805 46.0365 375.461 48.5588 375.461 51.5937C375.461 54.6697 374.805 57.2125 373.492 59.2221C372.18 61.1908 370.334 62.6672 367.955 63.6515C365.577 64.6358 362.788 65.128 359.589 65.128H350.422V79.5235C350.422 79.9337 350.279 80.2823 349.992 80.5694C349.746 80.8565 349.397 81 348.946 81H343.102ZM350.299 58.2993H359.281C361.66 58.2993 363.485 57.7457 364.756 56.6383C366.028 55.49 366.664 53.8084 366.664 51.5937C366.664 49.5431 366.069 47.9026 364.879 46.6722C363.69 45.4008 361.824 44.7651 359.281 44.7651H350.299V58.2993ZM390.068 81.6152C387.935 81.6152 386.008 81.2051 384.285 80.3848C382.562 79.5235 381.189 78.3957 380.163 77.0012C379.179 75.5658 378.687 73.9663 378.687 72.2027C378.687 69.3318 379.835 67.0556 382.132 65.3741C384.47 63.6515 387.546 62.5032 391.36 61.929L399.788 60.6986V59.4067C399.788 57.6842 399.357 56.3512 398.496 55.4079C397.635 54.4646 396.158 53.993 394.067 53.993C392.59 53.993 391.38 54.3006 390.437 54.9158C389.535 55.49 388.858 56.2692 388.407 57.2535C388.079 57.7867 387.607 58.0533 386.992 58.0533H382.132C381.681 58.0533 381.332 57.9302 381.086 57.6842C380.881 57.4381 380.778 57.11 380.778 56.6998C380.819 56.0436 381.086 55.2439 381.578 54.3006C382.07 53.3573 382.85 52.455 383.916 51.5937C384.982 50.6915 386.356 49.9327 388.038 49.3175C389.719 48.7023 391.749 48.3947 394.128 48.3947C396.712 48.3947 398.886 48.7228 400.649 49.379C402.454 49.9942 403.889 50.835 404.956 51.9013C406.022 52.9677 406.801 54.2186 407.293 55.654C407.785 57.0895 408.031 58.6069 408.031 60.2064V79.5235C408.031 79.9337 407.888 80.2823 407.601 80.5694C407.314 80.8565 406.965 81 406.555 81H401.572C401.121 81 400.752 80.8565 400.465 80.5694C400.219 80.2823 400.095 79.9337 400.095 79.5235V77.1243C399.562 77.9035 398.845 78.6418 397.942 79.339C397.04 79.9952 395.933 80.5489 394.62 81C393.349 81.4101 391.831 81.6152 390.068 81.6152ZM392.159 75.7709C393.595 75.7709 394.887 75.4633 396.035 74.8481C397.225 74.2329 398.147 73.2896 398.804 72.0182C399.501 70.7058 399.849 69.0652 399.849 67.0966V65.8047L393.697 66.789C391.278 67.1581 389.473 67.7528 388.284 68.5731C387.094 69.3933 386.5 70.3982 386.5 71.5875C386.5 72.4898 386.766 73.2691 387.299 73.9253C387.874 74.5405 388.591 75.0121 389.453 75.3402C390.314 75.6273 391.216 75.7709 392.159 75.7709ZM420.866 92.6887C420.537 92.6887 420.25 92.5656 420.004 92.3196C419.758 92.0735 419.635 91.7864 419.635 91.4583C419.635 91.2942 419.635 91.1302 419.635 90.9661C419.676 90.8431 419.758 90.679 419.881 90.474L424.68 79.0929L412.868 51.2246C412.704 50.8145 412.622 50.5274 412.622 50.3633C412.663 49.9942 412.806 49.6866 413.053 49.4406C413.299 49.1535 413.606 49.0099 413.975 49.0099H418.958C419.451 49.0099 419.82 49.133 420.066 49.379C420.312 49.6251 420.496 49.8917 420.619 50.1788L428.801 70.2956L437.23 50.1788C437.353 49.8507 437.537 49.5841 437.783 49.379C438.029 49.133 438.399 49.0099 438.891 49.0099H443.812C444.14 49.0099 444.427 49.133 444.674 49.379C444.961 49.6251 445.104 49.9122 445.104 50.2403C445.104 50.4864 445.022 50.8145 444.858 51.2246L427.448 91.5198C427.284 91.8479 427.079 92.1145 426.833 92.3196C426.587 92.5656 426.218 92.6887 425.726 92.6887H420.866Z" fill="black"/>
</svg>
